<mxfile host="app.diagrams.net" agent="Mozilla/5.0 (Macintosh; Intel Mac OS X 10_15_7) AppleWebKit/537.36 (KHTML, like Gecko) Chrome/129.0.0.0 Safari/537.36" version="24.7.16" pages="3">
  <diagram name="Analise histórica" id="T9lrPBQcwAw9oBGDDASq">
    <mxGraphModel dx="2060" dy="1107" grid="1" gridSize="10" guides="1" tooltips="1" connect="1" arrows="1" fold="1" page="1" pageScale="1" pageWidth="1169" pageHeight="827" math="0" shadow="0">
      <root>
        <mxCell id="0" />
        <mxCell id="1" parent="0" />
        <mxCell id="7BiDQ3n5poa9NNo9-hRY-3" style="edgeStyle=orthogonalEdgeStyle;rounded=0;orthogonalLoop=1;jettySize=auto;html=1;" edge="1" parent="1" source="7BiDQ3n5poa9NNo9-hRY-1" target="7BiDQ3n5poa9NNo9-hRY-2">
          <mxGeometry relative="1" as="geometry" />
        </mxCell>
        <mxCell id="7BiDQ3n5poa9NNo9-hRY-1" value="CPL" style="sketch=0;outlineConnect=0;fontColor=#232F3E;gradientColor=none;fillColor=#7AA116;strokeColor=none;dashed=0;verticalLabelPosition=bottom;verticalAlign=top;align=center;html=1;fontSize=12;fontStyle=0;aspect=fixed;pointerEvents=1;shape=mxgraph.aws4.iot_thing_plc;" vertex="1" parent="1">
          <mxGeometry x="80" y="306.5" width="78" height="78" as="geometry" />
        </mxCell>
        <mxCell id="7BiDQ3n5poa9NNo9-hRY-7" style="edgeStyle=orthogonalEdgeStyle;rounded=0;orthogonalLoop=1;jettySize=auto;html=1;entryX=0;entryY=0.5;entryDx=0;entryDy=0;" edge="1" parent="1" source="7BiDQ3n5poa9NNo9-hRY-2" target="7BiDQ3n5poa9NNo9-hRY-6">
          <mxGeometry relative="1" as="geometry" />
        </mxCell>
        <mxCell id="7BiDQ3n5poa9NNo9-hRY-2" value="" style="sketch=0;outlineConnect=0;fontColor=#232F3E;gradientColor=none;fillColor=#7AA116;strokeColor=none;dashed=0;verticalLabelPosition=bottom;verticalAlign=top;align=center;html=1;fontSize=12;fontStyle=0;aspect=fixed;pointerEvents=1;shape=mxgraph.aws4.mqtt_protocol;" vertex="1" parent="1">
          <mxGeometry x="240" y="306.5" width="78" height="78" as="geometry" />
        </mxCell>
        <mxCell id="7BiDQ3n5poa9NNo9-hRY-4" value="AWS" style="swimlane;whiteSpace=wrap;html=1;" vertex="1" parent="1">
          <mxGeometry x="440" y="200" width="440" height="291" as="geometry" />
        </mxCell>
        <mxCell id="7BiDQ3n5poa9NNo9-hRY-5" value="PARQUET" style="sketch=0;outlineConnect=0;fontColor=#232F3E;gradientColor=none;fillColor=#7AA116;strokeColor=none;dashed=0;verticalLabelPosition=bottom;verticalAlign=top;align=center;html=1;fontSize=12;fontStyle=0;aspect=fixed;pointerEvents=1;shape=mxgraph.aws4.bucket_with_objects;" vertex="1" parent="7BiDQ3n5poa9NNo9-hRY-4">
          <mxGeometry x="145" y="106.5" width="75" height="78" as="geometry" />
        </mxCell>
        <mxCell id="7BiDQ3n5poa9NNo9-hRY-8" style="edgeStyle=orthogonalEdgeStyle;rounded=0;orthogonalLoop=1;jettySize=auto;html=1;" edge="1" parent="7BiDQ3n5poa9NNo9-hRY-4" source="7BiDQ3n5poa9NNo9-hRY-6" target="7BiDQ3n5poa9NNo9-hRY-5">
          <mxGeometry relative="1" as="geometry" />
        </mxCell>
        <mxCell id="7BiDQ3n5poa9NNo9-hRY-6" value="AWS IoT" style="shape=image;verticalLabelPosition=bottom;labelBackgroundColor=default;verticalAlign=top;aspect=fixed;imageAspect=0;image=https://static-00.iconduck.com/assets.00/internetofthings-awsiot-thinggeneric-icon-1024x1024-nqtfvghf.png;" vertex="1" parent="7BiDQ3n5poa9NNo9-hRY-4">
          <mxGeometry x="-49" y="93.5" width="104" height="104" as="geometry" />
        </mxCell>
        <mxCell id="7BiDQ3n5poa9NNo9-hRY-9" value="DATAHUB" style="image;aspect=fixed;html=1;points=[];align=center;fontSize=12;image=img/lib/azure2/analytics/Azure_Databricks.svg;" vertex="1" parent="7BiDQ3n5poa9NNo9-hRY-4">
          <mxGeometry x="310" y="110.5" width="62.8" height="68" as="geometry" />
        </mxCell>
        <mxCell id="7BiDQ3n5poa9NNo9-hRY-10" style="edgeStyle=orthogonalEdgeStyle;rounded=0;orthogonalLoop=1;jettySize=auto;html=1;entryX=-0.064;entryY=0.515;entryDx=0;entryDy=0;entryPerimeter=0;" edge="1" parent="7BiDQ3n5poa9NNo9-hRY-4" source="7BiDQ3n5poa9NNo9-hRY-5" target="7BiDQ3n5poa9NNo9-hRY-9">
          <mxGeometry relative="1" as="geometry" />
        </mxCell>
        <mxCell id="7BiDQ3n5poa9NNo9-hRY-12" style="edgeStyle=orthogonalEdgeStyle;rounded=0;orthogonalLoop=1;jettySize=auto;html=1;entryX=1;entryY=0.5;entryDx=0;entryDy=0;" edge="1" parent="1" source="7BiDQ3n5poa9NNo9-hRY-11" target="7BiDQ3n5poa9NNo9-hRY-4">
          <mxGeometry relative="1" as="geometry" />
        </mxCell>
        <mxCell id="7BiDQ3n5poa9NNo9-hRY-11" value="POWERBI&lt;br&gt;DASHBOARDS" style="image;aspect=fixed;html=1;points=[];align=center;fontSize=12;image=img/lib/azure2/analytics/Power_BI_Embedded.svg;" vertex="1" parent="1">
          <mxGeometry x="980" y="311.5" width="51" height="68" as="geometry" />
        </mxCell>
      </root>
    </mxGraphModel>
  </diagram>
  <diagram id="sfIrWV9KXbR1Z5pGe266" name="Monitoramento">
    <mxGraphModel dx="2060" dy="1107" grid="1" gridSize="10" guides="1" tooltips="1" connect="1" arrows="1" fold="1" page="1" pageScale="1" pageWidth="1169" pageHeight="827" math="0" shadow="0">
      <root>
        <mxCell id="0" />
        <mxCell id="1" parent="0" />
        <mxCell id="VdKkNcMNbsnF4ylDJm2V-1" style="edgeStyle=orthogonalEdgeStyle;rounded=0;orthogonalLoop=1;jettySize=auto;html=1;" edge="1" parent="1" source="VdKkNcMNbsnF4ylDJm2V-2" target="VdKkNcMNbsnF4ylDJm2V-4">
          <mxGeometry relative="1" as="geometry" />
        </mxCell>
        <mxCell id="VdKkNcMNbsnF4ylDJm2V-2" value="CPL" style="sketch=0;outlineConnect=0;fontColor=#232F3E;gradientColor=none;fillColor=#7AA116;strokeColor=none;dashed=0;verticalLabelPosition=bottom;verticalAlign=top;align=center;html=1;fontSize=12;fontStyle=0;aspect=fixed;pointerEvents=1;shape=mxgraph.aws4.iot_thing_plc;" vertex="1" parent="1">
          <mxGeometry x="80" y="306.5" width="78" height="78" as="geometry" />
        </mxCell>
        <mxCell id="VdKkNcMNbsnF4ylDJm2V-3" style="edgeStyle=orthogonalEdgeStyle;rounded=0;orthogonalLoop=1;jettySize=auto;html=1;entryX=0;entryY=0.5;entryDx=0;entryDy=0;" edge="1" parent="1" source="VdKkNcMNbsnF4ylDJm2V-4" target="VdKkNcMNbsnF4ylDJm2V-8">
          <mxGeometry relative="1" as="geometry" />
        </mxCell>
        <mxCell id="VdKkNcMNbsnF4ylDJm2V-4" value="" style="sketch=0;outlineConnect=0;fontColor=#232F3E;gradientColor=none;fillColor=#7AA116;strokeColor=none;dashed=0;verticalLabelPosition=bottom;verticalAlign=top;align=center;html=1;fontSize=12;fontStyle=0;aspect=fixed;pointerEvents=1;shape=mxgraph.aws4.mqtt_protocol;" vertex="1" parent="1">
          <mxGeometry x="240" y="306.5" width="78" height="78" as="geometry" />
        </mxCell>
        <mxCell id="VdKkNcMNbsnF4ylDJm2V-5" value="AWS" style="swimlane;whiteSpace=wrap;html=1;" vertex="1" parent="1">
          <mxGeometry x="440" y="200" width="470" height="430" as="geometry" />
        </mxCell>
        <mxCell id="VdKkNcMNbsnF4ylDJm2V-14" style="edgeStyle=orthogonalEdgeStyle;rounded=0;orthogonalLoop=1;jettySize=auto;html=1;" edge="1" parent="VdKkNcMNbsnF4ylDJm2V-5" source="VdKkNcMNbsnF4ylDJm2V-8" target="VdKkNcMNbsnF4ylDJm2V-13">
          <mxGeometry relative="1" as="geometry" />
        </mxCell>
        <mxCell id="VdKkNcMNbsnF4ylDJm2V-8" value="AWS IoT" style="shape=image;verticalLabelPosition=bottom;labelBackgroundColor=default;verticalAlign=top;aspect=fixed;imageAspect=0;image=https://static-00.iconduck.com/assets.00/internetofthings-awsiot-thinggeneric-icon-1024x1024-nqtfvghf.png;" vertex="1" parent="VdKkNcMNbsnF4ylDJm2V-5">
          <mxGeometry x="-49" y="93.5" width="104" height="104" as="geometry" />
        </mxCell>
        <mxCell id="VdKkNcMNbsnF4ylDJm2V-13" value="KNISES &lt;br&gt;STREAM" style="sketch=0;points=[[0,0,0],[0.25,0,0],[0.5,0,0],[0.75,0,0],[1,0,0],[0,1,0],[0.25,1,0],[0.5,1,0],[0.75,1,0],[1,1,0],[0,0.25,0],[0,0.5,0],[0,0.75,0],[1,0.25,0],[1,0.5,0],[1,0.75,0]];outlineConnect=0;fontColor=#232F3E;fillColor=#8C4FFF;strokeColor=#ffffff;dashed=0;verticalLabelPosition=bottom;verticalAlign=top;align=center;html=1;fontSize=12;fontStyle=0;aspect=fixed;shape=mxgraph.aws4.resourceIcon;resIcon=mxgraph.aws4.kinesis;" vertex="1" parent="VdKkNcMNbsnF4ylDJm2V-5">
          <mxGeometry x="130" y="107" width="78" height="78" as="geometry" />
        </mxCell>
        <mxCell id="VdKkNcMNbsnF4ylDJm2V-15" value="" style="sketch=0;points=[[0,0,0],[0.25,0,0],[0.5,0,0],[0.75,0,0],[1,0,0],[0,1,0],[0.25,1,0],[0.5,1,0],[0.75,1,0],[1,1,0],[0,0.25,0],[0,0.5,0],[0,0.75,0],[1,0.25,0],[1,0.5,0],[1,0.75,0]];outlineConnect=0;fontColor=#232F3E;fillColor=#ED7100;strokeColor=#ffffff;dashed=0;verticalLabelPosition=bottom;verticalAlign=top;align=center;html=1;fontSize=12;fontStyle=0;aspect=fixed;shape=mxgraph.aws4.resourceIcon;resIcon=mxgraph.aws4.lambda;" vertex="1" parent="VdKkNcMNbsnF4ylDJm2V-5">
          <mxGeometry x="280" y="107" width="78" height="78" as="geometry" />
        </mxCell>
        <mxCell id="VdKkNcMNbsnF4ylDJm2V-16" style="edgeStyle=orthogonalEdgeStyle;rounded=0;orthogonalLoop=1;jettySize=auto;html=1;entryX=0;entryY=0.5;entryDx=0;entryDy=0;entryPerimeter=0;" edge="1" parent="VdKkNcMNbsnF4ylDJm2V-5" source="VdKkNcMNbsnF4ylDJm2V-13" target="VdKkNcMNbsnF4ylDJm2V-15">
          <mxGeometry relative="1" as="geometry" />
        </mxCell>
        <mxCell id="VdKkNcMNbsnF4ylDJm2V-17" value="NOTIFICAÇÕES" style="sketch=0;points=[[0,0,0],[0.25,0,0],[0.5,0,0],[0.75,0,0],[1,0,0],[0,1,0],[0.25,1,0],[0.5,1,0],[0.75,1,0],[1,1,0],[0,0.25,0],[0,0.5,0],[0,0.75,0],[1,0.25,0],[1,0.5,0],[1,0.75,0]];outlineConnect=0;fontColor=#232F3E;fillColor=#E7157B;strokeColor=#ffffff;dashed=0;verticalLabelPosition=bottom;verticalAlign=top;align=center;html=1;fontSize=12;fontStyle=0;aspect=fixed;shape=mxgraph.aws4.resourceIcon;resIcon=mxgraph.aws4.sns;" vertex="1" parent="VdKkNcMNbsnF4ylDJm2V-5">
          <mxGeometry x="280" y="260" width="78" height="78" as="geometry" />
        </mxCell>
        <mxCell id="VdKkNcMNbsnF4ylDJm2V-18" style="edgeStyle=orthogonalEdgeStyle;rounded=0;orthogonalLoop=1;jettySize=auto;html=1;entryX=0.5;entryY=0;entryDx=0;entryDy=0;entryPerimeter=0;" edge="1" parent="VdKkNcMNbsnF4ylDJm2V-5" source="VdKkNcMNbsnF4ylDJm2V-15" target="VdKkNcMNbsnF4ylDJm2V-17">
          <mxGeometry relative="1" as="geometry" />
        </mxCell>
        <mxCell id="VdKkNcMNbsnF4ylDJm2V-22" style="edgeStyle=orthogonalEdgeStyle;rounded=0;orthogonalLoop=1;jettySize=auto;html=1;" edge="1" parent="1" source="VdKkNcMNbsnF4ylDJm2V-12">
          <mxGeometry relative="1" as="geometry">
            <mxPoint x="910" y="304" as="targetPoint" />
          </mxGeometry>
        </mxCell>
        <mxCell id="VdKkNcMNbsnF4ylDJm2V-12" value="POWERBI&lt;br&gt;DASHBOARDS" style="image;aspect=fixed;html=1;points=[];align=center;fontSize=12;image=img/lib/azure2/analytics/Power_BI_Embedded.svg;" vertex="1" parent="1">
          <mxGeometry x="1030" y="270" width="51" height="68" as="geometry" />
        </mxCell>
        <mxCell id="VdKkNcMNbsnF4ylDJm2V-20" style="edgeStyle=orthogonalEdgeStyle;rounded=0;orthogonalLoop=1;jettySize=auto;html=1;" edge="1" parent="1" source="VdKkNcMNbsnF4ylDJm2V-19">
          <mxGeometry relative="1" as="geometry">
            <mxPoint x="910" y="476.4000000000001" as="targetPoint" />
          </mxGeometry>
        </mxCell>
        <mxCell id="VdKkNcMNbsnF4ylDJm2V-19" value="GRAFANA&lt;br&gt;REALTIME DASHBOARDS" style="image;aspect=fixed;html=1;points=[];align=center;fontSize=12;image=img/lib/azure2/other/Grafana.svg;" vertex="1" parent="1">
          <mxGeometry x="1021.5" y="450" width="68" height="52.800000000000004" as="geometry" />
        </mxCell>
      </root>
    </mxGraphModel>
  </diagram>
  <diagram id="pDg2Vjj47K2HgM37QHz4" name="Local">
    <mxGraphModel dx="2060" dy="1107" grid="1" gridSize="10" guides="1" tooltips="1" connect="1" arrows="1" fold="1" page="1" pageScale="1" pageWidth="1169" pageHeight="827" math="0" shadow="0">
      <root>
        <mxCell id="0" />
        <mxCell id="1" parent="0" />
      </root>
    </mxGraphModel>
  </diagram>
</mxfile>
